<?xml version="1.0" encoding="UTF-8" standalone="no"?>
<!DOCTYPE svg PUBLIC "-//W3C//DTD SVG 1.1//EN" "http://www.w3.org/Graphics/SVG/1.1/DTD/svg11.dtd">
<svg width="100%" height="100%" viewBox="0 0 2746 650" version="1.1" xmlns="http://www.w3.org/2000/svg" xmlns:xlink="http://www.w3.org/1999/xlink" xml:space="preserve" xmlns:serif="http://www.serif.com/" style="fill-rule:evenodd;clip-rule:evenodd;stroke-linejoin:round;stroke-miterlimit:2;">
    <g transform="matrix(4.16667,0,0,4.16667,0,0)">
        <g transform="matrix(0.24,0,0,0.24,0,0)">
            <path d="M358.767,248.549L358.673,248.546L358.479,248.538C357.898,248.511 357.324,248.457 356.758,248.378L356.671,248.366L356.452,248.332C356.38,248.321 356.307,248.309 356.235,248.297L356.018,248.259C355.627,248.188 355.24,248.104 354.858,248.009L354.737,247.978L354.604,247.943C354.24,247.847 353.881,247.74 353.526,247.622L353.492,247.611C352.317,247.218 351.196,246.711 350.141,246.103C349.906,245.967 349.674,245.827 349.446,245.681C348.973,245.38 348.515,245.058 348.073,244.716C347.849,244.543 347.63,244.365 347.414,244.183C347.01,243.84 346.621,243.479 346.247,243.103C346.037,242.892 345.832,242.675 345.633,242.454C345.423,242.222 345.219,241.984 345.021,241.741L344.926,241.623L344.795,241.458L344.732,241.377C343.986,240.414 343.332,239.375 342.783,238.274C342.258,237.22 341.829,236.11 341.507,234.955C341.358,234.422 341.233,233.879 341.131,233.328L341.092,233.111C341.005,232.605 340.938,232.091 340.892,231.571C334.103,233.644 327.135,235.812 320.022,238.072C316.537,239.179 313.019,240.307 309.469,241.458L308.02,241.928L307.954,241.95C306.247,242.505 304.533,243.064 302.814,243.629C300.003,244.551 297.177,245.486 294.335,246.434L293.336,246.768C292.786,246.952 292.237,247.136 291.687,247.32L290.104,247.852C287.137,248.85 284.152,249.863 281.155,250.889L280.06,251.265L278.388,251.839C260.38,258.039 241.945,264.722 223.588,271.835C220.339,273.094 217.098,274.364 213.863,275.647C210.544,276.963 207.228,278.294 203.921,279.639C202.147,280.36 200.372,281.086 198.599,281.817C167.656,294.571 137.595,308.505 110.895,323.368L110.839,323.399C106.556,325.784 102.364,328.19 98.27,330.619L98.008,330.773C91.3,334.758 84.848,338.806 78.703,342.91L78.642,342.951L78.281,343.193C77.646,343.618 77.007,344.049 76.372,344.48C75.23,345.255 74.107,346.027 72.994,346.801C72.377,347.231 71.763,347.661 71.153,348.092L70.544,348.523C68.438,350.016 66.366,351.523 64.339,353.036C63.648,353.552 62.954,354.074 62.266,354.597C61.616,355.092 60.967,355.59 60.324,356.088L59.99,356.346L59.493,356.733C59.286,356.895 59.076,357.059 58.867,357.223C58.668,357.38 58.465,357.539 58.263,357.699L57.754,358.101C57.57,358.248 57.386,358.395 57.202,358.541L56.661,358.974C56.271,359.287 55.889,359.595 55.509,359.904C54.802,360.478 54.102,361.053 53.408,361.629L52.877,362.072L52.348,362.515L51.822,362.958L51.299,363.402L51.001,363.656C50.665,363.943 50.332,364.229 50,364.515L49.746,364.735L49.233,365.18L48.724,365.625C48.347,365.956 47.973,366.287 47.601,366.617C47.028,367.126 46.458,367.639 45.894,368.152L45.726,368.305L45.7,368.328C42.761,371.008 39.976,373.704 37.356,376.416C36.997,376.788 36.643,377.158 36.292,377.528C33.486,380.487 30.875,383.469 28.474,386.47L28.107,386.931C27.594,387.579 27.093,388.223 26.602,388.869C25.92,389.767 25.262,390.658 24.623,391.551L24.293,392.015L24.284,392.028C21.282,396.274 18.705,400.565 16.6,404.887L16.493,405.107C16.418,405.264 16.343,405.421 16.267,405.578L16.045,406.05L15.827,406.522L15.613,406.994L15.402,407.466L15.195,407.939C15.085,408.193 14.977,408.447 14.87,408.702L14.793,408.884L14.597,409.358L14.486,409.634C14.3,410.093 14.116,410.563 13.938,411.033C12.66,414.398 11.678,417.78 11.007,421.178C10.918,421.627 10.836,422.07 10.76,422.512C10.689,422.92 10.622,423.333 10.559,423.746L10.501,424.142L10.475,424.326C10.394,424.901 10.322,425.483 10.258,426.065L10.208,426.546C10.143,427.199 10.09,427.853 10.05,428.509L10.027,428.901C10.02,429.032 10.013,429.163 10.007,429.293L9.992,429.63C9.979,429.943 9.97,430.256 9.963,430.569L9.957,430.862L9.953,431.104C9.946,431.704 9.949,432.303 9.962,432.903L9.97,433.211C9.974,433.342 9.978,433.472 9.983,433.603L9.998,433.994L9.998,433.997C10.026,434.632 10.065,435.266 10.116,435.9C10.215,437.133 10.359,438.364 10.546,439.595L10.585,439.853L10.648,440.243C10.746,440.837 10.855,441.431 10.973,442.025C11.01,442.21 11.048,442.395 11.087,442.58L11.17,442.97C11.22,443.2 11.272,443.431 11.326,443.663L11.346,443.748L11.438,444.137L11.503,444.402C11.564,444.649 11.626,444.896 11.69,445.142C11.868,445.826 12.06,446.508 12.265,447.19L12.282,447.246L12.301,447.31C12.462,447.84 12.631,448.37 12.809,448.9L12.905,449.185L13.038,449.573C13.279,450.264 13.533,450.954 13.802,451.643L13.901,451.897L14.055,452.284C14.145,452.509 14.237,452.733 14.33,452.958C14.542,453.468 14.762,453.978 14.989,454.488C15.165,454.883 15.346,455.277 15.531,455.672L15.573,455.762L15.757,456.148L15.943,456.534C16.006,456.663 16.069,456.791 16.133,456.92L16.325,457.306L16.359,457.374C16.606,457.864 16.861,458.356 17.123,458.847L17.33,459.232C17.491,459.53 17.655,459.828 17.822,460.126C18.141,460.696 18.469,461.266 18.807,461.834L18.861,461.926L18.995,462.15C19.351,462.743 19.716,463.334 20.092,463.925C20.468,464.515 20.853,465.104 21.249,465.692L21.296,465.764L21.556,466.147C21.856,466.586 22.162,467.027 22.474,467.467C22.632,467.69 22.79,467.911 22.95,468.133C24.038,469.638 25.194,471.143 26.419,472.644C27.464,473.926 28.56,475.207 29.706,476.486L30.016,476.831L30.268,477.109C30.742,477.631 31.226,478.153 31.717,478.675C32.091,479.072 32.47,479.469 32.854,479.867C33.292,480.319 33.734,480.769 34.182,481.219L34.344,481.381L34.723,481.76C35.465,482.497 36.223,483.232 36.997,483.966L37.062,484.028L37.07,484.036C37.671,484.605 38.283,485.174 38.905,485.744L39.091,485.914C39.229,486.04 39.368,486.166 39.506,486.291L39.923,486.668C40.341,487.043 40.765,487.421 41.193,487.797C41.688,488.233 42.19,488.669 42.697,489.104L42.927,489.302L43.368,489.678L43.812,490.053L43.896,490.124C44.316,490.478 44.739,490.831 45.166,491.184C45.847,491.746 46.541,492.311 47.245,492.875C47.528,493.103 47.809,493.327 48.092,493.551L48.409,493.802L48.725,494.051C49.408,494.587 50.097,495.121 50.794,495.654C51.345,496.075 51.903,496.497 52.466,496.919C52.961,497.289 53.457,497.657 53.958,498.025L54.31,498.283L54.82,498.656L55.334,499.028C55.675,499.275 56.021,499.524 56.37,499.772L56.892,500.144C57.649,500.682 58.412,501.217 59.184,501.751C59.487,501.961 59.789,502.17 60.093,502.378C60.724,502.81 61.362,503.244 62.007,503.677C62.297,503.872 62.593,504.07 62.89,504.268C63.887,504.932 64.898,505.596 65.923,506.258L66.214,506.446L66.726,506.776C67.015,506.961 67.3,507.143 67.586,507.325C68.414,507.852 69.248,508.377 70.091,508.902C75.088,512.01 80.397,515.106 86.016,518.184L86.032,518.193L86.699,518.558L87.369,518.922L88.042,519.287C88.493,519.53 88.945,519.773 89.397,520.015L90.723,520.721C92.102,521.452 93.507,522.187 94.93,522.921L96.342,523.646C96,523.486 95.66,523.326 95.318,523.165L94.298,522.684C93.619,522.363 92.943,522.042 92.272,521.722L91.265,521.24L90.494,520.87C87.077,519.226 83.733,517.577 80.462,515.923L79.505,515.437C78.346,514.848 77.195,514.257 76.053,513.666C75.628,513.446 75.205,513.226 74.784,513.006L73.852,512.518C73.543,512.356 73.233,512.193 72.925,512.031C72.326,511.715 71.73,511.399 71.137,511.083C70.773,510.889 70.411,510.695 70.049,510.502C68.624,509.737 67.214,508.971 65.819,508.204C64.36,507.401 62.919,506.597 61.495,505.791L61.252,505.654L60.516,505.235C59.43,504.617 58.356,503.998 57.292,503.379L56.953,503.182C56.671,503.016 56.389,502.851 56.106,502.686L55.404,502.272C54.088,501.496 52.787,500.716 51.5,499.935L51.115,499.701L50.339,499.227C49.93,498.976 49.524,498.726 49.119,498.475C47.367,497.392 45.645,496.305 43.953,495.213C43.269,494.771 42.591,494.33 41.918,493.889C41.425,493.564 40.935,493.241 40.449,492.917L40.068,492.664L39.536,492.308C35.429,489.554 31.515,486.775 27.794,483.966C27.108,483.448 26.43,482.93 25.759,482.412L25.089,481.893L24.727,481.609C24.403,481.356 24.082,481.104 23.763,480.852C22.937,480.198 22.122,479.543 21.317,478.887C20.836,478.495 20.361,478.104 19.89,477.712L19.26,477.186C18.905,476.889 18.553,476.591 18.202,476.293C17.52,475.714 16.845,475.132 16.178,474.549C15.86,474.271 15.542,473.991 15.226,473.71C14.397,472.976 13.582,472.239 12.779,471.5C11.843,470.638 10.925,469.775 10.025,468.908L9.779,468.671C9.594,468.492 9.409,468.312 9.224,468.133L8.673,467.593L8.405,467.327C7.622,466.552 6.852,465.773 6.095,464.992C5.523,464.401 4.958,463.808 4.401,463.213C3.881,462.658 3.367,462.1 2.86,461.541L2.417,461.051L2.168,460.772C1.593,460.13 1.029,459.487 0.474,458.842L0,458.287L0,601.533L845.317,558.288L845.317,47.158L0,3.908L0,324.242L0.414,323.595C7.478,312.609 15.769,301.91 24.877,291.591C27.789,288.293 30.784,285.034 33.849,281.817C36.421,279.117 39.044,276.446 41.708,273.806L42.292,273.229C76.023,239.946 116.259,211.762 146.962,192.454C147.572,192.072 148.175,191.688 148.774,191.3L149.222,191.011C149.518,190.818 149.814,190.624 150.109,190.43L150.549,190.139C151.72,189.362 152.867,188.579 153.989,187.792L154.409,187.497C155.557,186.687 156.68,185.871 157.779,185.051C158.171,184.759 158.558,184.467 158.943,184.174C159.418,183.813 159.887,183.451 160.352,183.089C161.745,182.002 163.095,180.909 164.406,179.81C164.643,179.611 164.878,179.412 165.112,179.213C167.545,177.145 169.836,175.057 171.992,172.957C173.813,171.185 175.538,169.402 177.173,167.616L177.741,166.99C178.203,166.478 178.658,165.965 179.106,165.452C179.896,164.547 180.662,163.643 181.406,162.738C181.649,162.443 181.889,162.149 182.127,161.854L182.527,161.357L182.92,160.861C183.631,159.96 184.319,159.062 184.987,158.164C185.702,157.203 186.392,156.243 187.06,155.286C187.327,154.903 187.591,154.52 187.851,154.137L188.038,153.86L188.171,153.662C188.936,152.525 189.668,151.391 190.369,150.261L190.445,150.14L190.527,150.006C191.255,148.828 191.95,147.652 192.613,146.482L192.632,146.45L192.897,145.978C193.429,145.029 193.94,144.083 194.431,143.142L194.61,142.799C194.713,142.598 194.816,142.397 194.92,142.196L195.224,141.593L195.41,141.221C195.874,140.287 196.318,139.359 196.743,138.436C197.122,137.614 197.486,136.797 197.836,135.986C197.981,135.649 198.124,135.313 198.264,134.979C198.622,134.122 198.965,133.272 199.292,132.429L199.389,132.18L199.511,131.861C199.868,130.925 200.208,129.995 200.529,129.076C200.777,128.367 201.014,127.664 201.24,126.967L201.372,126.562C201.43,126.38 201.488,126.197 201.546,126.014L201.716,125.468L201.876,124.944C202.125,124.123 202.359,123.311 202.58,122.51C202.654,122.245 202.725,121.984 202.794,121.724L202.933,121.201C203.101,120.559 203.261,119.921 203.413,119.29L203.45,119.137L203.509,118.887C203.69,118.122 203.859,117.37 204.017,116.629C208.887,93.771 204.454,76.421 204.412,76.25L203.517,72.833C203.987,72.833 204.728,72.726 205.809,72.731L206.046,72.733C209.998,72.81 218.156,74.455 233.404,87.088C234.569,88.053 236.001,89.294 237.657,90.768L237.788,90.885L237.859,90.947C239.484,92.396 241.317,94.06 243.317,95.9L243.574,96.135C244.007,96.535 244.441,96.934 244.874,97.334L246.1,98.469C249.014,101.173 252.205,104.166 255.569,107.345C258.99,110.578 262.59,114.002 266.261,117.508L268.126,119.29L270.668,121.724C272.347,123.333 274.031,124.949 275.711,126.562C280.706,131.36 285.66,136.137 290.31,140.626C294.078,144.263 297.644,147.708 300.87,150.824L303.002,152.882L304.617,154.44C308.865,158.538 312.282,161.822 314.442,163.862C315.358,164.727 316.048,165.37 316.479,165.754L356.967,177.488C356.995,177.497 357.187,177.56 357.528,177.666L357.663,177.709L358.152,177.859L358.761,178.044C359.445,178.248 360.313,178.502 361.344,178.789L361.786,178.912C361.966,178.962 362.145,179.011 362.325,179.06L362.889,179.213L363.245,179.308C364.203,179.564 365.256,179.837 366.395,180.119C368.579,180.661 371.076,181.241 373.818,181.81L374.001,181.848C375.759,182.211 377.616,182.569 379.554,182.91L379.6,182.918C379.928,182.975 380.256,183.032 380.584,183.089L381.527,183.247C381.9,183.308 382.277,183.369 382.657,183.429L383.612,183.578C383.784,183.604 383.956,183.63 384.127,183.656L384.646,183.733C384.917,183.773 385.189,183.812 385.462,183.851C386.236,183.962 387.019,184.068 387.81,184.169C388.245,184.224 388.684,184.279 389.126,184.332L389.425,184.368L389.968,184.431L390.513,184.493L390.663,184.509C391.321,184.582 391.985,184.651 392.652,184.716C393.265,184.776 393.883,184.832 394.504,184.885C395.317,184.955 396.131,185.017 396.95,185.073L397.193,185.09L397.488,185.109C397.829,185.131 398.17,185.152 398.511,185.171L398.896,185.193L399.466,185.222L400.037,185.25C400.227,185.258 400.418,185.266 400.609,185.275L401.089,185.294C401.683,185.316 402.278,185.335 402.875,185.349L402.904,185.35L403.48,185.362L404.056,185.371L404.633,185.378C405.019,185.382 405.403,185.383 405.787,185.383L406.467,185.38C406.861,185.377 407.253,185.371 407.643,185.362L407.816,185.358C408.038,185.352 408.261,185.345 408.484,185.339L409.085,185.317C409.878,185.286 410.663,185.244 411.44,185.193C413.283,185.072 415.081,184.899 416.833,184.693C419.921,184.328 422.866,183.858 425.667,183.379C426.546,183.229 427.439,183.075 428.343,182.918L429.264,182.759C429.883,182.651 430.501,182.543 431.119,182.435L432.393,182.212C435.03,181.748 437.77,181.259 440.602,180.748C442.195,180.461 443.816,180.167 445.465,179.866L447.198,179.549L449.35,179.153L451.531,178.751L452.877,178.502C454.281,178.241 455.702,177.977 457.138,177.709C464.633,176.309 472.56,174.803 480.782,173.22L482.149,172.957L487.166,171.988C490.288,171.383 493.447,170.769 496.636,170.146C513.652,166.825 531.494,163.276 549.107,159.733C564.128,156.711 578.987,153.693 593.021,150.824L597.017,150.006L599.381,149.522C605.565,148.255 611.564,147.023 617.317,145.838C633.158,142.577 647.124,139.679 657.978,137.419C666.763,135.589 673.507,134.178 677.548,133.33L679.79,132.86C680.474,132.717 681.158,132.573 681.842,132.429L681.724,132.472C680.89,132.784 676.385,134.589 667.53,137.78C664.897,138.728 661.877,139.8 658.454,140.992L657.2,141.429C656.8,141.567 656.401,141.705 656.001,141.844L655.537,142.004C654.059,142.514 652.513,143.044 650.9,143.592C646.682,145.027 642,146.594 636.831,148.29C635.128,148.849 633.375,149.421 631.569,150.006C627.213,151.419 622.548,152.912 617.561,154.483C616.264,154.892 614.938,155.308 613.591,155.729C606.113,158.068 597.954,160.572 589.081,163.235C580.837,165.71 571.982,168.322 562.485,171.067L559.645,171.886L557.163,172.6C552.941,173.812 548.598,175.049 544.131,176.31L541.802,176.968L538.693,177.842L537.205,178.259C535.221,178.815 533.218,179.373 531.193,179.937C526.903,181.13 522.508,182.344 518.006,183.578L515.832,184.174L515.077,184.38C513.048,184.935 511.006,185.491 508.942,186.051C502.968,187.673 496.824,189.326 490.5,191.011L487.301,191.862C486.051,192.193 484.801,192.525 483.551,192.856L479.759,193.858C472.771,195.7 465.562,197.582 458.14,199.5L456.132,200.02L452.046,201.072C448.2,202.06 444.318,203.053 440.379,204.055C438.325,204.578 436.265,205.101 434.189,205.626L430.977,206.439L426.633,207.533C425.806,207.741 424.963,207.955 424.103,208.173L421.475,208.843C420.431,209.111 419.365,209.386 418.278,209.667L415.935,210.275C415.455,210.401 414.974,210.526 414.493,210.652L413.477,210.918C406.474,212.756 398.718,214.845 390.349,217.165L388.585,217.655C387.995,217.819 387.401,217.985 386.803,218.152L385.004,218.655C382.1,219.469 379.129,220.309 376.097,221.174L375.758,221.271C377.129,223.867 377.983,226.788 377.983,229.929C377.983,240.221 369.642,248.558 359.354,248.558C359.158,248.558 358.962,248.555 358.767,248.549ZM380.403,287.333L380.258,287.366C379.062,287.634 377.866,287.905 376.67,288.177C374.144,288.751 371.618,289.334 369.098,289.922C365.895,290.67 362.695,291.429 359.505,292.198L358.752,292.38L356.993,292.807C356.165,293.008 355.337,293.21 354.501,293.416C351.222,294.22 347.947,295.036 344.692,295.86L344.358,295.945L343.241,296.229C341.222,296.743 339.204,297.261 337.184,297.785L335.393,298.251L333.604,298.719C330.914,299.425 328.229,300.139 325.55,300.861C320.323,302.269 315.117,303.707 309.919,305.179C307.761,305.789 305.608,306.405 303.455,307.027C299.345,308.215 295.254,309.42 291.2,310.639L289.461,311.163C287.831,311.655 286.205,312.15 284.576,312.651C279.858,314.099 275.172,315.571 270.534,317.061C232.873,329.162 197.692,342.713 167.712,357.223L166.816,357.657L165.906,358.101C165.08,358.505 164.257,358.91 163.439,359.315L162.796,359.634L162.141,359.961C161.323,360.369 160.51,360.778 159.7,361.187C158.54,361.774 157.387,362.363 156.242,362.954L154.954,363.621C152.539,364.878 150.165,366.141 147.833,367.41C146.078,368.365 144.348,369.323 142.647,370.281C141.393,370.987 140.153,371.695 138.923,372.407L137.747,373.091C137.357,373.319 136.968,373.547 136.579,373.775L135.42,374.461C134.879,374.782 134.341,375.104 133.803,375.429L133.127,375.836L132.172,376.416C131.691,376.709 131.212,377.003 130.734,377.298L129.753,377.905C129.384,378.136 129.015,378.367 128.646,378.597L127.78,379.143C127.06,379.598 126.347,380.054 125.638,380.511C124.693,381.12 123.759,381.731 122.839,382.339C121.8,383.027 120.774,383.715 119.765,384.403C119.195,384.792 118.63,385.181 118.071,385.568L117.567,385.919C117.399,386.036 117.232,386.153 117.065,386.27L116.565,386.622L116.128,386.931C115.281,387.53 114.445,388.131 113.617,388.735L113.134,389.088C112.096,389.848 111.075,390.61 110.074,391.372L109.822,391.563L109.587,391.744C108.15,392.843 106.749,393.946 105.382,395.053C104.335,395.901 103.309,396.751 102.308,397.6C101.941,397.912 101.577,398.223 101.217,398.535L101.037,398.69L100.625,399.048L100.215,399.406L100.142,399.471C99.379,400.142 98.63,400.813 97.896,401.485L97.813,401.56L97.422,401.92C96.888,402.413 96.36,402.907 95.843,403.4C94.973,404.228 94.125,405.057 93.299,405.886L92.941,406.247C91.716,407.488 90.539,408.731 89.412,409.978L89.183,410.232L89.099,410.326C88.538,410.951 87.99,411.577 87.457,412.202C86.677,413.115 85.924,414.03 85.199,414.945C84.972,415.232 84.748,415.519 84.527,415.805L84.332,416.057L84.054,416.422C83.962,416.544 83.87,416.666 83.779,416.788L83.658,416.949C83.244,417.504 82.84,418.06 82.446,418.615C82.1,419.104 81.762,419.594 81.432,420.084C80.615,421.295 79.848,422.508 79.133,423.722C78.369,425.017 77.664,426.313 77.018,427.61L76.929,427.789C76.566,428.525 76.221,429.262 75.896,429.998C75.524,430.844 75.176,431.69 74.854,432.537C74.62,433.153 74.4,433.769 74.193,434.385L74.18,434.423L74.072,434.752C73.881,435.338 73.702,435.924 73.536,436.511L73.5,436.639L73.475,436.731C73.306,437.338 73.151,437.945 73.01,438.553C72.788,439.506 72.6,440.459 72.447,441.412C72.352,442 72.27,442.587 72.202,443.174L72.188,443.293L72.148,443.663C72.096,444.157 72.054,444.65 72.022,445.142C72.01,445.32 71.999,445.498 71.99,445.676C71.96,446.238 71.943,446.8 71.937,447.363C71.931,448.063 71.944,448.76 71.976,449.449C71.988,449.71 72.003,449.969 72.021,450.225C72.044,450.559 72.071,450.892 72.103,451.228L72.131,451.51C72.266,452.812 72.471,454.1 72.747,455.376C72.849,455.844 72.959,456.311 73.08,456.777C73.192,457.212 73.313,457.646 73.442,458.077C73.5,458.273 73.561,458.469 73.623,458.665C73.701,458.908 73.78,459.151 73.864,459.395L73.962,459.682L74.102,460.075C74.355,460.772 74.63,461.465 74.925,462.15L75.048,462.435C75.106,462.564 75.165,462.694 75.223,462.824L75.283,462.956C75.381,463.171 75.482,463.385 75.585,463.601L75.773,463.988C75.921,464.287 76.073,464.586 76.228,464.882C76.653,465.692 77.108,466.496 77.596,467.296C77.83,467.679 78.071,468.062 78.32,468.444L78.399,468.565L78.649,468.941C78.733,469.066 78.818,469.191 78.903,469.317L79.11,469.616C79.514,470.198 79.936,470.776 80.376,471.354C80.784,471.89 81.206,472.423 81.644,472.954L81.701,473.024L81.979,473.357C82.164,473.577 82.352,473.797 82.542,474.016L82.632,474.121L82.874,474.397C83.481,475.085 84.112,475.769 84.771,476.451L84.967,476.653L85.319,477.012L85.676,477.37L86.037,477.727C86.159,477.846 86.281,477.964 86.403,478.083L86.681,478.35C87.232,478.876 87.797,479.4 88.375,479.919L88.698,480.207L89.097,480.559C89.365,480.794 89.636,481.028 89.908,481.26L90.32,481.609C90.706,481.934 91.098,482.257 91.498,482.581C91.72,482.762 91.945,482.942 92.172,483.123L92.453,483.346L92.893,483.691L92.91,483.704C93.699,484.318 94.509,484.929 95.342,485.537L95.632,485.749L95.862,485.914C96.519,486.388 97.19,486.86 97.875,487.331C98.169,487.532 98.464,487.734 98.761,487.933C99.521,488.445 100.297,488.955 101.086,489.461L101.609,489.795L102.018,490.053C102.234,490.189 102.451,490.325 102.67,490.461L103.207,490.793C103.745,491.124 104.291,491.454 104.846,491.785C105.909,492.419 106.998,493.05 108.109,493.676L108.247,493.754C108.8,494.065 109.359,494.375 109.927,494.686C110.85,495.191 111.79,495.694 112.747,496.196C113.066,496.363 113.387,496.53 113.712,496.698C114.572,497.142 115.445,497.585 116.327,498.025L116.824,498.272L116.847,498.283C118.192,498.948 119.566,499.611 120.971,500.27C122.472,500.974 124.007,501.674 125.578,502.373C126.519,502.792 127.473,503.209 128.439,503.625L129.163,503.936C129.422,504.046 129.681,504.157 129.944,504.268C130.705,504.591 131.474,504.913 132.252,505.235L132.851,505.483C133.101,505.585 133.351,505.688 133.602,505.791L134.303,506.077C135.173,506.429 136.051,506.782 136.935,507.131C138.13,507.604 139.341,508.076 140.565,508.545L141.361,508.85L142.161,509.153C142.43,509.254 142.698,509.355 142.967,509.457L143.637,509.707C144.842,510.157 146.062,510.606 147.298,511.054C148.604,511.527 149.928,512 151.265,512.47L152.12,512.769C152.41,512.871 152.7,512.972 152.992,513.073L153.842,513.367L154.71,513.666C155,513.765 155.29,513.864 155.583,513.964L156.459,514.262C156.999,514.444 157.54,514.626 158.083,514.808L158.227,514.856C161.572,515.975 165.013,517.087 168.546,518.193L169.204,518.399L169.316,518.434C178.382,521.259 188.069,524.049 198.371,526.818C199.797,527.201 201.236,527.584 202.685,527.967L204.868,528.54C207.791,529.305 210.761,530.068 213.778,530.83L216.049,531.401C216.81,531.592 217.572,531.782 218.337,531.972C219.874,532.353 221.414,532.733 222.967,533.113C220.421,532.164 217.921,531.214 215.461,530.258C214.102,529.73 212.756,529.202 211.428,528.674L209.832,528.037C205.594,526.336 201.496,524.627 197.547,522.912L196.807,522.59C194.591,521.623 192.419,520.654 190.299,519.684L189.593,519.361C189.323,519.236 189.053,519.112 188.78,518.986C187.161,518.237 185.569,517.487 183.998,516.733C182.887,516.2 181.789,515.666 180.711,515.134L180.051,514.808C178.737,514.156 177.443,513.503 176.162,512.846L175.525,512.518C167.837,508.549 160.881,504.541 154.658,500.493C154.328,500.278 153.999,500.063 153.671,499.846C151.688,498.539 149.781,497.227 147.949,495.91L147.483,495.574C146.708,495.012 145.946,494.45 145.202,493.889L144.851,493.623C144.084,493.042 143.333,492.46 142.595,491.877L142.575,491.861L142.309,491.65C138.992,489.012 135.981,486.36 133.275,483.693L133.232,483.65C132.722,483.147 132.222,482.642 131.735,482.138L131.581,481.98L131.371,481.76C130.863,481.23 130.368,480.699 129.884,480.166C129.038,479.236 128.229,478.304 127.457,477.37C127.114,476.955 126.779,476.541 126.451,476.127L126.18,475.781C125.583,475.016 125.012,474.251 124.466,473.485C124.086,472.953 123.718,472.42 123.363,471.888C122.839,471.104 122.342,470.319 121.87,469.533L121.663,469.185C121.292,468.556 120.937,467.926 120.599,467.296L120.489,467.091L120.396,466.913C120.153,466.452 119.92,465.99 119.694,465.527L119.605,465.342L119.51,465.144C119.175,464.439 118.86,463.734 118.566,463.028C118.164,462.062 117.8,461.095 117.474,460.126C117.331,459.698 117.195,459.27 117.066,458.842L117.013,458.665L116.954,458.462C116.606,457.263 116.317,456.062 116.087,454.858C115.93,454.038 115.801,453.217 115.699,452.395C115.473,450.586 115.38,448.772 115.42,446.953L115.429,446.596C115.433,446.48 115.437,446.363 115.442,446.252C115.509,444.58 115.687,442.893 115.972,441.201C116.041,440.788 116.117,440.375 116.199,439.964C116.418,438.86 116.684,437.75 116.994,436.639C117.033,436.499 117.072,436.359 117.113,436.219L117.198,435.926C117.272,435.675 117.349,435.424 117.429,435.167C117.715,434.257 118.03,433.342 118.375,432.428C119.09,430.529 119.934,428.615 120.908,426.685C121.051,426.401 121.197,426.117 121.347,425.831L121.505,425.53C121.942,424.705 122.402,423.878 122.887,423.046C123.166,422.568 123.453,422.088 123.751,421.603C123.912,421.34 124.076,421.076 124.243,420.812C124.332,420.67 124.422,420.528 124.512,420.388L124.707,420.084C124.862,419.844 125.018,419.604 125.173,419.37C125.35,419.101 125.53,418.832 125.715,418.56L125.922,418.254C128.869,413.942 132.428,409.576 136.596,405.163C137.162,404.564 137.739,403.965 138.331,403.36C139.233,402.438 140.162,401.515 141.118,400.59L141.456,400.263C141.675,400.053 141.894,399.843 142.113,399.633L142.778,399.004L143.113,398.69C144.253,397.622 145.428,396.553 146.636,395.484C147.211,394.974 147.794,394.464 148.388,393.95L149.125,393.316C151.1,391.627 153.161,389.933 155.31,388.232L156.119,387.595C157.08,386.841 158.057,386.087 159.049,385.335C159.559,384.947 160.073,384.56 160.593,384.172C161.631,383.396 162.687,382.62 163.756,381.845L164.644,381.204L164.975,380.968C167.999,378.803 171.158,376.634 174.451,374.461C175.292,373.906 176.143,373.351 176.997,372.798C179.998,370.856 183.107,368.912 186.327,366.963C187.341,366.35 188.365,365.736 189.398,365.124L190.489,364.478C191.351,363.971 192.221,363.463 193.093,362.958C196.482,360.994 199.979,359.029 203.588,357.062C209.709,353.725 216.139,350.388 222.872,347.057L224.179,346.412C228.258,344.407 232.447,342.403 236.747,340.403C237.615,339.999 238.487,339.595 239.364,339.192C243.059,337.491 246.833,335.793 250.686,334.097C252.173,333.443 253.67,332.79 255.178,332.138C259.869,330.109 264.673,328.084 269.596,326.063C271.602,325.24 273.626,324.417 275.671,323.595C276.47,323.274 277.272,322.953 278.079,322.631C285.238,319.775 292.621,316.933 300.228,314.108C302.662,313.203 305.119,312.301 307.598,311.4L309.323,310.775C318.539,307.444 328.064,304.138 337.898,300.861L339.746,300.247C343.45,299.019 347.195,297.796 350.982,296.578L352.88,295.969C355.251,295.21 357.639,294.453 360.043,293.698C360.978,293.404 361.917,293.111 362.859,292.817C364.738,292.231 366.627,291.646 368.526,291.062C370.421,290.48 372.322,289.9 374.231,289.322L376.214,288.722C377.543,288.322 378.871,287.924 380.203,287.526L382.208,286.929L380.403,287.333Z" style="fill:white;"/>
        </g>
        <path d="M325.896,154.75L299.76,154.75L299.76,108.611C299.76,108.611 299.76,99.232 299.636,91.606L299.134,91.606C298.762,92.982 298.135,94.731 297.136,97.858C295.133,104.483 292.009,116.989 288.008,136.493L260.749,136.493C256.621,116.989 253.621,104.483 251.497,97.858C250.495,94.731 249.995,92.982 249.493,91.606L248.997,91.606L248.997,154.75L222.861,154.75C222.861,114.111 224.611,88.605 227.613,67.473L259.747,67.473C263.749,75.224 266.627,82.228 268.876,89.98C270.753,96.106 273.004,106.235 274.003,112.737L274.63,112.737C275.753,106.235 278.004,96.106 279.754,89.98C282.13,82.228 284.881,75.224 289.01,67.473L321.144,67.473C324.019,88.605 325.896,114.111 325.896,154.75Z" style="fill:white;fill-rule:nonzero;"/>
        <path d="M374.197,131.617L374.197,126.242C371.195,125.491 368.071,124.992 364.569,124.992C358.943,124.992 356.067,127.991 356.067,133.37C356.067,138.745 359.942,141.496 364.569,141.496C370.571,141.496 374.197,137.87 374.197,131.617ZM398.708,116.363L398.708,155.126L390.078,155.126L383.949,147.622C379.197,153.001 371.071,156 361.071,156C344.439,156 331.56,148.122 331.56,133.869C331.56,120.488 340.314,111.862 361.694,111.862C364.818,111.862 370.823,112.361 374.197,112.988L374.197,110.736C374.197,105.736 371.573,102.234 365.444,102.234C360.568,102.234 357.566,104.235 356.443,107.734L333.685,107.734C337.559,95.231 349.067,87.728 365.072,87.728C387.327,87.728 398.708,99.483 398.708,116.363Z" style="fill:white;fill-rule:nonzero;"/>
        <path d="M451.841,89.105L451.841,109.486C449.093,108.86 443.838,107.61 440.088,107.61C433.838,107.61 430.085,110.736 430.085,117.864L430.085,154.75L405.578,154.75L405.578,88.605L414.831,88.605L422.833,98.857C426.834,92.355 433.212,87.728 441.59,87.728C445.842,87.728 448.842,88.354 451.841,89.105Z" style="fill:white;fill-rule:nonzero;"/>
        <rect x="458.091" y="62.597" width="24.507" height="92.153" style="fill:white;fill-rule:nonzero;"/>
        <path d="M490.098,154.75L514.609,154.75L514.609,88.981L490.098,88.981L490.098,154.75ZM502.35,82.728C495.976,82.728 489.85,78.977 489.85,71.974C489.85,64.846 495.849,61.347 502.35,61.347C508.855,61.347 514.981,64.846 514.981,71.974C514.981,78.977 508.728,82.728 502.35,82.728Z" style="fill:white;fill-rule:nonzero;"/>
        <path d="M588.502,115.863L588.502,154.75L563.995,154.75L563.995,118.112C563.995,108.611 561.619,105.11 555.744,105.11C549.99,105.11 546.489,110.612 546.489,116.614L546.489,154.75L521.981,154.75L521.981,88.605L530.607,88.605L538.61,98.357C544.863,91.231 552.618,87.728 561.994,87.728C580.248,87.728 588.502,100.234 588.502,115.863Z" style="fill:white;fill-rule:nonzero;"/>
        <path d="M626.109,87.728C644.366,87.728 656.745,95.73 658.494,109.737L635.361,109.737C635.11,105.485 632.737,101.859 625.985,101.859C620.857,101.859 618.857,104.235 618.857,106.235C618.857,114.989 658.746,108.86 658.746,134.62C658.746,145.997 647.616,156 627.235,156C609.728,156 595.348,147.747 593.472,133.243L616.481,133.243C616.98,138.869 621.732,141.872 627.858,141.872C632.985,141.872 635.737,140.119 635.737,137.495C635.737,128.618 596.099,134.868 596.099,108.611C596.099,95.358 609.229,87.728 626.109,87.728Z" style="fill:white;fill-rule:nonzero;"/>
    </g>
</svg>
